<?xml version="1.0" encoding="utf-8"?>
<!-- Generator: Adobe Illustrator 18.0.0, SVG Export Plug-In . SVG Version: 6.00 Build 0)  -->
<!DOCTYPE svg PUBLIC "-//W3C//DTD SVG 1.1 Tiny//EN" "http://www.w3.org/Graphics/SVG/1.1/DTD/svg11-tiny.dtd">
<svg version="1.1" xmlns="http://www.w3.org/2000/svg" xmlns:xlink="http://www.w3.org/1999/xlink" x="0px"
	 y="0px" viewBox="0 0 1024 500" xml:space="preserve">
<g id="layer">
    <path
       style="fill:#ffffff"
       d="m 157.2099,284.96413 c -3.844,-0.6689 -4.64832,-1.75529 -2.39342,-3.23277 0.73697,-0.48288 1.33995,-1.06629 1.33995,-1.29645 0,-0.23018 -1.20792,-1.38031 -2.68427,-2.55574 l -2.68427,-2.13729 3.99654,0 c 7.47767,0 17.43532,-3.02824 22.29943,-6.78151 1.00714,-0.77716 4.53864,-3.02157 7.84778,-4.98753 5.14344,-3.05583 7.01311,-4.57752 12.88268,-10.48506 6.49242,-6.53443 6.96191,-7.14897 8.62788,-11.29365 0.96901,-2.41079 2.61457,-6.03123 3.65681,-8.0455 1.04224,-2.01427 2.28682,-5.44374 2.76576,-7.62109 0.47893,-2.1773 1.22565,-4.46539 1.65939,-5.08463 0.66721,-0.95256 0.69525,-1.66201 0.18222,-4.60807 -0.33352,-1.91517 -0.99232,-3.86807 -1.46399,-4.33973 -0.4717,-0.47169 -1.42171,-1.64981 -2.11116,-2.61805 -0.72932,-1.02426 -2.40065,-2.2856 -3.99664,-3.01628 -2.76195,-1.26444 -12.16977,-3.31852 -15.19914,-3.31852 -0.89695,0 -2.19231,-0.43954 -2.87856,-0.97674 -3.65723,-2.86281 -6.56283,-3.8202 -13.14165,-4.33015 -3.52965,-0.27362 -6.88843,-0.49995 -7.46394,-0.50298 -0.5755,-0.005 -3.14184,-0.27833 -5.70297,-0.61177 -4.5814,-0.59643 -4.68144,-0.64027 -6.1953,-2.71654 -2.07397,-2.8445 -3.53571,-5.76315 -3.53571,-7.05976 0,-0.58695 -0.22938,-1.06719 -0.50976,-1.06719 -0.92162,0 -2.10617,-3.04291 -2.10617,-5.41037 0,-1.27773 0.4657,-3.34949 1.03489,-4.60383 1.18181,-2.60453 1.31382,-5.27874 0.46833,-9.48866 l -0.58953,-2.93543 -2.68037,-0.31397 c -2.87547,-0.33678 -3.86654,-0.35786 -12.4302,-0.26448 -3.82999,0.0418 -6.11298,-0.1764 -7.3246,-0.69996 -3.24705,-1.40308 -7.89752,-5.67813 -9.4874,-8.72155 l -1.50207,-2.87528 0.37388,-8.83655 0.37389,-8.83654 -1.91409,0.35909 c -1.05275,0.1975 -4.23323,1.28953 -7.06774,2.42674 -2.83452,1.13722 -5.75872,2.06766 -6.49826,2.06766 -0.73953,0 -2.99011,0.34615 -5.001307,0.76921 -4.496761,0.94592 -6.067298,1.0204 -13.676836,0.64864 -9.468859,-0.46261 -15.847111,-2.25108 -25.705913,-7.208 -5.450565,-2.74049 -5.021674,-3.32009 2.580332,-3.48703 7.439817,-0.16336 12.18549,-0.97625 16.411862,-2.81114 1.918612,-0.83299 3.752803,-1.51452 4.07596,-1.51452 0.997424,0 12.209626,-4.72473 14.147843,-5.96178 1.007138,-0.6428 3.775183,-1.94584 6.151209,-2.89565 2.37604,-0.94981 5.34859,-2.51227 6.60568,-3.47215 1.2571,-0.95985 4.25718,-2.65615 6.66685,-3.76956 2.57377,-1.18922 5.12652,-2.81468 6.18781,-3.94009 0.99363,-1.05365 3.0232,-2.51096 4.51015,-3.23846 1.48695,-0.72749 4.23253,-2.465663 6.1013,-3.862601 1.86877,-1.396939 4.6656,-3.161142 6.21518,-3.920472 3.30424,-1.619176 5.68528,-3.277549 12.65569,-8.814671 7.70676,-6.122033 7.21329,-5.968336 13.87025,-4.320293 9.91987,2.455823 15.8297,6.170721 18.45978,11.603768 1.30794,2.701805 1.10406,6.355077 -0.47352,8.484959 -1.0074,1.36011 -1.32947,1.56421 -4.56188,2.89114 -2.13654,0.87708 -7.97066,6.28114 -10.5866,9.8062 -0.78837,1.06236 -2.95048,3.13488 -4.80469,4.60559 -1.85419,1.47072 -3.88673,3.42672 -4.51676,4.34667 -0.63004,0.91993 -1.88076,2.21049 -2.77941,2.86787 -0.95707,0.7001 -2.47945,2.86733 -3.67512,5.23184 -1.1227,2.22015 -2.88698,4.84798 -3.92065,5.83963 -1.30161,1.24865 -1.87942,2.26455 -1.87942,3.3043 0,3.67316 1.97181,4.81629 9.72336,5.63698 4.59769,0.48678 6.52632,0.96978 9.8961,2.47856 7.90563,3.53966 14.10162,9.66872 14.10717,13.95482 0.003,1.16643 -0.76606,6.09134 -1.70572,10.94431 -0.93966,4.85292 -1.56012,9.2909 -1.37883,9.8621 0.1813,0.57121 1.4178,1.51992 2.74779,2.10824 2.16651,0.95831 3.6176,1.08122 13.94335,1.18057 12.31917,0.1186 15.00362,0.55489 19.06083,3.0983 2.4666,1.54633 8.80468,3.44089 11.51105,3.44089 1.17828,0 2.14231,0.20645 2.14231,0.45874 0,0.25233 1.16128,0.9583 2.58063,1.56893 1.41934,0.61055 4.58068,2.7585 7.02516,4.77307 2.4445,2.01463 4.81471,3.66298 5.26715,3.66298 0.45247,0 0.82264,0.4178 0.82264,0.92855 0,0.51072 1.01507,1.88377 2.2557,3.05128 2.46708,2.32158 6.23745,9.34979 7.12706,13.2853 1.35567,5.99723 0.37903,14.34341 -2.08528,17.82022 -0.52231,0.73693 -1.11516,1.9992 -1.3174,2.80507 -0.49581,1.97534 -7.13802,11.98776 -8.65977,13.05365 -0.6685,0.46819 -1.57505,0.86775 -2.0146,0.88784 -0.43953,0.0199 -1.85993,1.49156 -3.15642,3.26991 -1.29649,1.77836 -3.5331,4.01697 -4.97025,4.97466 -1.43717,0.95769 -2.68914,2.076 -2.78217,2.48514 -0.33977,1.49411 -1.662,0.78227 -1.662,-0.89476 0,-2.68556 1.72304,-4.74331 6.20325,-7.40836 3.4598,-2.05806 4.4347,-2.94748 5.7203,-5.21873 0.85234,-1.50583 2.63833,-4.18277 3.96884,-5.94877 2.72977,-3.62327 2.89546,-4.0987 1.28129,-3.67659 -0.68404,0.17888 -1.36216,-0.005 -1.70035,-0.45971 -0.93626,-1.26042 -6.53133,3.43098 -14.45911,12.12382 -8.39959,9.21017 -14.31382,14.1481 -19.2783,16.09582 -2.05693,0.807 -4.24989,2.13207 -5.26946,3.18398 -1.28024,1.3209 -2.49248,1.95667 -4.542,2.38218 -1.88617,0.39154 -2.98182,0.92819 -3.36788,1.64955 -0.45646,0.85291 -0.9229,1.01226 -2.30594,0.78782 -1.31736,-0.21379 -2.15332,0.0288 -3.48085,1.01079 -0.96093,0.71064 -2.17569,1.18103 -2.6995,1.04522 -0.52381,-0.13577 -1.70453,0.19693 -2.62382,0.73931 -0.91931,0.54239 -2.96278,1.25615 -4.54108,1.58618 -1.57829,0.33002 -4.07546,1.28112 -5.54925,2.11355 -2.40377,1.35778 -3.13083,1.50699 -7.06301,1.4497 -2.41087,-0.0351 -5.91051,-0.32959 -7.777,-0.65438 z M 82.716462,271.71122 c -0.202597,-0.20259 -0.897182,-0.37915 -1.54352,-0.39239 -0.754965,-0.0158 -2.188503,-1.14645 -4.009174,-3.16313 -1.5587,-1.72649 -3.66971,-3.78373 -4.691116,-4.57163 -3.414691,-2.63399 -3.318361,-2.46129 -2.966929,-5.3193 0.742678,-6.03982 1.280849,-9.63504 1.886992,-12.60604 0.597117,-2.92677 0.441059,-7.89603 -0.353247,-11.24851 l -0.309885,-1.30796 1.452991,1.30796 c 0.799157,0.71938 3.039608,3.42687 4.97881,6.01664 1.93919,2.58975 4.358911,5.50034 5.37715,6.46798 l 1.851353,1.75933 2.791777,-1.2972 c 1.535466,-0.71346 5.028386,-2.98027 7.762025,-5.03728 2.733649,-2.05701 7.324601,-5.29715 10.202131,-7.20034 2.87751,-1.90319 5.7203,-3.90302 6.31729,-4.44409 0.59699,-0.54108 2.00051,-1.04037 3.11893,-1.10954 3.08954,-0.19111 2.81198,1.07756 -0.79707,3.64321 -1.70165,1.20973 -3.48333,2.95251 -3.95929,3.87289 -0.47596,0.92044 -1.58949,2.28276 -2.4745,3.02746 -2.73551,2.3018 -9.268375,11.60991 -9.268375,13.20573 0,0.96942 -0.336476,1.53571 -1.046372,1.76105 -0.79025,0.25081 -1.046372,0.79159 -1.046372,2.20942 0,1.20731 -0.47721,2.50298 -1.337163,3.63042 -0.735444,0.9642 -1.670721,2.87634 -2.078405,4.24912 -1.130284,3.80608 -4.862948,6.91458 -8.302972,6.91458 -0.652683,0 -1.352462,-0.16575 -1.555059,-0.36838 z m 58.972058,-21.50204 c -1.48294,-0.77624 -3.95499,-2.59391 -5.49345,-4.03921 -1.53848,-1.44529 -3.50007,-3.13085 -4.35913,-3.74559 l -1.56187,-1.11773 5.74738,-2.68709 c 6.20558,-2.90137 9.41903,-4.89016 9.89171,-6.12193 0.36647,-0.95499 -4.0573,-6.23571 -6.12874,-7.31599 -0.80365,-0.41912 -2.68712,-0.75464 -4.18547,-0.74563 -1.49835,0.01 -3.64189,0.0173 -4.76341,0.0188 -1.43488,0 -2.25333,0.30826 -2.76213,1.03466 -1.23046,1.75675 -6.67584,2.86298 -6.35481,1.29107 0.19373,-0.9486 6.58831,-3.3572 8.91301,-3.3572 0.82537,0 2.17939,-0.50183 3.00897,-1.11517 1.33608,-0.98782 2.14543,-1.10658 7.0876,-1.04028 3.06861,0.0414 6.01408,0.30756 6.54548,0.59197 0.53141,0.2844 2.43797,0.51712 4.23677,0.51712 2.49903,0 3.52541,0.23659 4.3507,1.00294 0.59404,0.55165 3.19899,2.21705 5.78875,3.70098 5.66192,3.24416 9.15576,6.44376 9.15576,8.38463 0,0.74836 0.34567,1.81763 0.76814,2.37619 1.50761,1.9933 0.99567,3.60047 -1.94532,6.10694 -3.16979,2.70158 -5.60295,4.06442 -7.25631,4.06442 -0.63845,0 -2.46397,0.73545 -4.05665,1.63428 -2.65081,1.49605 -3.36266,1.64866 -8.41329,1.80374 -5.14932,0.15815 -5.69735,0.0753 -8.21369,-1.24189 z M 133.56464,63.338316 c -0.77153,-0.232828 -1.94224,-0.801173 -2.60155,-1.262976 -0.65932,-0.461816 -1.65855,-0.83966 -2.22051,-0.83966 -0.90595,0 -7.66552,-2.949175 -9.73234,-4.246178 -0.43163,-0.270853 -1.4582,-0.897728 -2.28125,-1.393059 -5.30572,-3.193011 -6.23976,-4.35183 -9.37082,-11.625888 -2.42509,-5.633995 -2.84678,-7.324606 -1.82697,-7.324606 0.41823,0 1.18653,0.470877 1.70735,1.046373 0.52083,0.575507 1.36961,1.046372 1.88621,1.046372 0.51658,0 1.82484,1.059442 2.90723,2.354335 1.2899,1.543127 2.38447,2.354334 3.17676,2.354334 0.66484,0 3.09447,0.948099 5.39919,2.106894 6.63479,3.335915 9.0841,4.133565 14.50913,4.725107 6.11681,0.666987 10.24283,2.514698 13.54595,6.066137 2.82114,3.033241 3.64671,5.195238 2.26595,5.934203 -2.16619,1.159306 -14.53254,1.913239 -17.36433,1.058612 z" />
    <path
       style="fill:#ffffff"
       d="m 240.75037,236.20151 c -2.54358,-1.76762 -4.66324,-4.18779 -4.92073,-5.61833 -0.31527,-1.75165 0.12794,-2.81155 3.46048,-8.27547 1.32038,-2.16489 2.84683,-4.78622 3.39212,-5.82519 1.25958,-2.40001 3.96836,-12.8475 4.78635,-18.46044 0.97903,-6.71801 2.00138,-15.33522 1.89168,-15.9447 -0.0547,-0.30408 0.1354,-1.33002 0.42249,-2.27987 0.2871,-0.94986 0.49,-2.92707 0.45091,-4.3938 -0.0388,-1.46673 0.0488,-3.43038 0.1954,-4.3637 0.14656,-0.93331 0.50206,-4.15093 0.79,-7.15029 0.28792,-2.99934 1.02081,-9.25304 1.62864,-13.89708 0.60782,-4.64406 1.1142,-9.09467 1.12529,-9.89022 0.0111,-0.79557 0.18334,-1.84959 0.38276,-2.34228 0.19945,-0.49268 0.37843,-1.54519 0.39777,-2.33891 0.11262,-4.62385 2.60245,-20.84779 3.5124,-22.88717 0.27499,-0.61632 0.84856,-2.46212 1.27458,-4.10178 1.49997,-5.77312 5.09418,-11.77299 9.82789,-16.40584 3.73073,-3.651263 15.87092,-11.55515 18.46579,-12.022194 1.07719,-0.193879 0.43016,0.662696 -0.8384,1.10994 -0.77263,0.272416 -1.64972,0.81046 -1.94905,1.195667 -0.84513,1.087603 -5.35023,4.517629 -6.12372,4.662398 -0.38069,0.07131 -1.39318,0.716884 -2.24995,1.434755 -0.85679,0.717873 -1.69876,1.249635 -1.87106,1.181713 -0.60497,-0.238474 -3.39542,3.906242 -4.0867,6.070062 -0.62683,1.962094 -1.10618,5.532339 -1.35147,10.065959 -0.14862,2.74676 -1.21837,5.52582 -4.55905,11.8437 -1.77984,3.36602 -3.76433,7.51367 -4.41,9.21702 -1.86386,4.9171 -4.59225,17.7922 -4.21479,19.88936 0.11263,0.6257 0.0443,1.86107 -0.15084,2.74524 -0.22525,1.01823 -0.151,2.5476 0.20253,4.17175 0.40618,1.86585 0.4208,2.68712 0.0541,3.01559 -0.27725,0.24826 -0.5171,1.62042 -0.53304,3.04923 -0.0159,1.42881 -0.0927,3.81511 -0.17061,5.30288 -0.0779,1.4878 -0.0174,3.42477 0.1343,4.30438 0.4849,2.81065 0.71857,10.74573 0.43883,14.90469 -0.14902,2.2155 -0.16468,5.30762 -0.0348,6.87137 0.12986,1.56375 0.0521,4.3511 -0.17289,6.1941 -0.22496,1.843 -0.58713,6.40687 -0.8048,10.14194 -0.48143,8.2609 -1.04244,12.02488 -2.62019,17.57962 -1.66157,5.84987 -3.53619,8.97835 -6.16118,10.28215 -2.61134,1.297 -4.63196,1.64407 -5.61094,0.96376 z m 95.34781,-34.68807 c -1.03692,-0.19316 -2.91762,-0.36969 -4.17946,-0.39228 -1.26184,-0.0226 -3.36398,-0.44654 -4.67151,-0.94211 -3.32917,-1.26187 -9.74486,-5.59284 -12.88423,-8.69759 -2.79619,-2.76539 -6.12502,-5.0812 -7.06161,-4.91263 -0.77441,0.13939 -5.58212,6.9615 -8.81706,12.51135 -4.37255,7.50156 -5.96022,8.8299 -9.32961,7.80576 -4.45896,-1.35531 -8.00697,-4.74719 -9.81904,-9.3869 -0.7869,-2.01485 -0.87627,-2.6604 -0.61766,-4.4616 0.34774,-2.42204 1.23753,-3.80201 2.39344,-3.71203 0.81595,0.0636 5.10478,-3.31991 7.09107,-5.59413 0.56397,-0.64572 1.75196,-1.7853 2.63994,-2.53241 0.88802,-0.74711 2.05724,-2.28731 2.5983,-3.42267 0.54108,-1.13536 3.55657,-5.82399 6.70111,-10.41918 5.50062,-8.03821 6.89718,-10.66854 6.58507,-12.40258 -0.0798,-0.44354 -1.03259,-1.62437 -2.11724,-2.62411 -2.29833,-2.11834 -3.68748,-4.43244 -4.12711,-6.87498 -0.17205,-0.9559 -0.29821,-4.28566 -0.28033,-7.39952 0.0309,-5.38332 -0.91512,-15.17871 -2.3174,-23.99558 -0.33308,-2.094 -0.59803,-5.47823 -0.58887,-7.52048 0.0117,-2.616 -0.48465,-6.789937 -1.67995,-14.126066 -1.92629,-11.822564 -2.47637,-14.066536 -3.46874,-14.148917 -0.37706,-0.03131 -0.22313,-0.158933 0.3478,-0.288341 1.33597,-0.302831 4.75513,1.49511 6.22174,3.271673 1.40892,1.706719 2.70534,5.336299 3.52542,9.869892 0.66216,3.678993 0.93791,3.985781 2.46764,2.782664 0.34491,-0.271253 1.8557,-1.397007 3.35738,-2.501702 1.50169,-1.104696 2.86985,-2.263827 3.04044,-2.575869 0.58033,-1.06159 -2.81189,-14.357772 -4.37953,-17.16642 -0.17257,-0.309042 -0.7822,-2.981934 -1.35495,-5.939744 l -1.04126,-5.377843 -1.60387,0.250249 c -2.26393,0.353177 -2.36845,0.330427 -1.94262,-0.422561 0.3107,-0.5495 0.13906,-0.818843 -0.93503,-1.467063 -4.13298,-2.494405 -8.33198,-1.441477 -18.08291,4.534381 -1.83787,1.12635 -3.57149,2.316527 -3.85249,2.644851 -0.28101,0.328325 -2.22519,1.894674 -4.3204,3.480781 -2.09522,1.586099 -4.45538,3.518842 -5.24483,4.29496 -2.33434,2.294975 -2.9424,4.617341 -1.12211,4.28559 0.37124,-0.06762 2.86414,-1.358839 5.53981,-2.869298 2.67565,-1.510458 5.80908,-3.168835 6.96314,-3.685301 1.8174,-0.813307 3.47708,-1.689601 9.2234,-4.869892 0.61859,-0.342341 1.47858,-0.721516 1.91113,-0.842622 0.43253,-0.121102 1.21388,-0.62495 1.73642,-1.119692 0.60047,-0.568566 1.28383,-0.856145 1.8574,-0.781598 1.19752,0.155651 0.77631,0.63108 -1.73092,1.953655 -1.13886,0.600773 -2.44671,1.579898 -2.90628,2.175833 -0.45957,0.595923 -1.68438,1.521072 -2.72178,2.055884 -3.97217,2.047745 -8.93039,5.175773 -10.61663,6.697794 -0.96647,0.872361 -1.84262,1.601476 -1.94697,1.62026 -0.10435,0.01878 -3.84346,3.139281 -8.30911,6.934432 -4.46566,3.795163 -9.32718,7.919914 -10.80337,9.166125 -3.26753,2.75847 -6.17167,4.527663 -7.96076,4.849673 -1.98547,0.35736 -4.89137,-0.516922 -6.33139,-1.904911 -0.69812,-0.672903 -2.05749,-1.878622 -3.02081,-2.67937 -1.34732,-1.119953 -1.89003,-1.920541 -2.352,-3.469445 -0.5694,-1.90918 -0.53932,-2.111601 0.58041,-3.905387 1.51064,-2.420069 2.92186,-3.298019 7.49523,-4.66293 6.6001,-1.96979 9.50731,-3.693825 19.81793,-11.752409 7.52742,-5.883271 13.55168,-11.180165 15.22191,-13.383983 0.64128,-0.846137 1.67983,-1.984954 2.30787,-2.530683 1.36821,-1.188858 3.24956,-4.618946 4.29715,-7.834581 0.41914,-1.286571 1.13627,-2.760584 1.59364,-3.275593 1.11704,-1.257743 4.79542,-1.939881 6.64464,-1.23224 0.7305,0.279566 2.34724,0.647478 3.59265,0.817619 5.08455,0.69455 10.28788,3.889157 13.03949,8.005615 1.35667,2.029436 2.04513,2.717566 2.69812,2.69651 1.45012,-0.04674 5.46242,-1.638298 6.40214,-2.539526 1.41869,-1.360526 11.66419,-4.662568 17.92833,-5.77814 5.12747,-0.91313 5.48977,-0.923763 7.24437,-0.212792 2.24471,0.909696 2.56577,1.238763 2.4775,2.539296 -0.13489,1.985265 -1.88558,4.183861 -4.34543,5.45717 -1.27683,0.660959 -3.4019,1.898573 -4.72236,2.750283 -2.87429,1.853918 -6.27674,3.527127 -11.83339,5.819263 -3.77476,1.557109 -5.94529,2.916559 -5.85068,3.664434 0.0197,0.161272 0.63363,4.025845 1.36345,8.588077 1.50777,9.429156 1.33586,9.140349 4.61859,7.758044 0.96314,-0.405534 3.05952,-0.988789 4.65867,-1.296127 1.59917,-0.307319 3.81825,-0.74051 4.93134,-0.962665 2.3405,-0.467201 5.67024,-0.243886 6.47524,0.434201 0.30511,0.256924 0.98693,0.389352 1.51531,0.294252 0.66152,-0.119065 1.73851,0.425122 3.45897,1.747811 3.60208,2.769305 6.14209,4.49362 7.15028,4.854077 0.819,0.292788 0.85172,0.399283 0.47577,1.548516 -0.99861,3.0525 -6.01137,6.774021 -12.06057,8.953913 -2.73138,0.984288 -3.34379,1.614953 -3.06614,3.157573 0.35614,1.9787 1.46218,3.72496 3.24423,5.12219 0.87666,0.68739 1.54288,1.51806 1.4804,1.84597 -0.0625,0.32791 -0.98588,1.46112 -2.05199,2.51828 -1.77037,1.75559 -1.86819,1.95622 -1.12907,2.31627 0.4451,0.2168 1.2432,0.31608 1.77355,0.22062 0.5558,-0.10003 1.37761,0.19346 1.93985,0.69284 0.79364,0.70475 1.20308,0.7817 2.19482,0.41239 1.06734,-0.39746 1.36356,-0.30491 2.37863,0.74354 1.29976,1.34252 2.44558,4.25148 2.58939,6.57436 0.0863,1.3923 -0.22878,1.90563 -3.25305,5.30041 -1.84171,2.06735 -3.64713,4.02271 -4.01213,4.34528 -0.63438,0.56069 -0.6121,0.62518 0.50658,1.46759 0.64349,0.48463 2.03956,1.02608 3.10228,1.20326 3.14051,0.5236 6.43892,4.01034 6.54466,6.91849 0.0266,0.73389 -0.20108,0.91307 -1.2998,1.02269 -1.17049,0.11675 -1.26727,0.20924 -0.79719,0.76183 1.82688,2.14757 5.4924,3.57378 11.06924,4.307 2.22934,0.29309 4.83357,0.80286 5.78717,1.13284 1.60113,0.554 1.81422,0.79632 2.78264,3.16465 1.17641,2.87679 1.22565,4.03424 0.2372,5.56978 -0.55605,0.86387 -0.95316,1.05804 -2.19325,1.07233 -2.0936,0.0242 -9.3369,-2.0649 -11.78536,-3.39904 -2.97153,-1.61916 -4.25247,-2.13725 -4.97153,-2.01088 -1.01684,0.17932 -5.08436,5.82326 -6.31207,8.75954 l -1.11836,2.67442 1.20281,0.70843 c 0.66156,0.38962 1.70977,0.73985 2.32946,0.77825 2.88164,0.17859 13.72841,2.54302 19.74483,4.30404 9.12102,2.66973 11.61837,4.62572 12.56344,9.83992 0.26544,1.47477 0.15602,2.05445 -0.58357,3.04342 -0.50261,0.672 -1.24048,1.46785 -1.63987,1.76857 -0.98136,0.739 -7.5306,3.77572 -9.70244,4.49877 -0.96257,0.32047 -3.94501,1.78693 -6.62762,3.25878 -2.68261,1.47186 -7.25358,3.90399 -10.15773,5.40474 -5.06587,2.61782 -5.49229,2.76727 -10.50127,3.68021 -3.93721,0.71793 -5.68444,0.86522 -7.1061,0.60034 z m 7.44742,-12.63034 c 0.64303,-0.20679 2.06287,-0.56364 3.15519,-0.79289 1.25492,-0.26337 2.34144,-0.77754 2.95096,-1.39645 0.53057,-0.53878 1.80019,-1.45431 2.82146,-2.03453 1.02116,-0.58021 2.15539,-1.44199 2.52031,-1.91503 0.84428,-1.09423 0.28737,-1.86884 -2.67714,-3.72383 -1.17075,-0.73254 -2.94509,-1.85435 -3.94301,-2.49294 -2.66539,-1.70558 -3.26368,-1.61896 -6.52502,0.94459 -2.50657,1.97025 -3.07772,2.25259 -4.85892,2.40197 -1.82272,0.15287 -2.25378,-0.007 -4.44507,-1.64933 -1.33468,-1.00022 -2.84484,-2.40296 -3.35598,-3.11717 -1.13406,-1.58476 -1.7291,-4.59485 -1.22389,-6.19136 0.90625,-2.86379 7.3722,-10.15518 10.91076,-12.30369 3.02363,-1.83586 8.46588,-5.92182 8.89255,-6.6764 0.31275,-0.55301 0.19007,-0.80508 -0.65991,-1.35553 -1.95093,-1.26345 -3.41727,-1.51152 -4.71675,-0.79798 -0.64881,0.35625 -1.37151,0.86252 -1.60615,1.12505 -0.23463,0.26254 -1.45515,1.21107 -2.71246,2.10791 -1.25721,0.89683 -2.75309,2.12652 -3.32417,2.73263 -0.57117,0.60613 -2.24448,2.13108 -3.71862,3.38879 -1.47414,1.2577 -3.72141,3.7167 -4.99394,5.46443 -1.27261,1.74775 -2.6719,3.4533 -3.10952,3.7901 -0.43771,0.33684 -1.0167,1.20735 -1.28661,1.93449 -0.27001,0.72716 -0.7112,1.36176 -0.98048,1.41023 -0.26926,0.0485 -1.3684,1.19232 -2.44239,2.54187 -1.074,1.34956 -2.98255,3.43121 -4.24128,4.6259 -4.02834,3.82335 -5.27549,6.65107 -3.56851,8.09103 3.085,2.60244 14.16077,5.73157 21.36406,6.03575 2.49197,0.10523 7.75515,-0.85476 11.77454,-2.14758 z m -29.84573,-46.75627 c 2.46302,-2.80487 4.16454,-5.45708 4.01917,-6.26475 -0.0547,-0.30409 -1.14282,-1.35397 -2.418,-2.33307 -2.01534,-1.5475 -2.40406,-2.0642 -2.97295,-3.95273 -1.07946,-3.58302 -0.16588,-6.95524 1.98933,-7.34315 1.13829,-0.20488 1.37442,-1.19911 1.05714,-4.44971 -0.20959,-2.14628 -0.32773,-2.40407 -1.28949,-2.81293 -0.77301,-0.32862 -1.6269,-0.28619 -3.16334,0.15715 -1.8585,0.53629 -2.22791,0.51567 -3.16048,-0.17654 -0.80958,-0.6009 -1.03811,-1.05686 -0.97952,-1.95405 0.16021,-2.45102 0.99958,-3.12342 6.56399,-5.25846 1.39808,-0.53645 1.09753,-3.16183 -1.23335,-10.770615 -0.51815,-1.691744 -0.66228,-1.839113 -1.62944,-1.666901 -1.44814,0.25786 -4.39415,1.997935 -5.46113,3.225627 -1.07758,1.239885 -1.42037,4.641289 -0.81224,8.058159 0.24221,1.34579 0.28807,3.11513 0.10758,3.93084 -0.27783,1.25606 -0.21673,1.6275 0.39869,2.42655 0.52688,0.68352 0.70293,1.3806 0.63916,2.53062 -0.0484,0.87298 0.29067,3.65241 0.75361,6.17652 0.46356,2.52398 1.04855,6.45021 1.30143,8.72467 0.40764,3.66494 2.76602,13.20464 3.46564,14.01815 0.38315,0.44552 0.58706,0.28198 2.82381,-2.26532 z M 331.1618,91.819237 c 1.99975,-2.949783 3.60109,-5.556859 3.55851,-5.79349 -0.10543,-0.585731 -7.34905,0.736309 -8.53552,1.557906 -1.42427,0.986182 -1.55683,2.577903 -0.53357,6.406154 0.59736,2.234959 1.06417,3.338664 1.38747,3.280474 0.26792,-0.04821 2.12338,-2.501161 4.12313,-5.450954 z m -8.79534,-29.768465 c 0.78109,-0.699179 1.86834,-1.357789 2.41613,-1.463588 0.54776,-0.106014 2.03377,-1.126051 3.30214,-2.26723 1.26836,-1.14117 3.04302,-2.412394 3.94373,-2.824931 0.9007,-0.412528 2.35375,-1.596629 3.22899,-2.631314 0.87523,-1.034695 1.86366,-1.933468 2.19644,-1.997288 0.33281,-0.06361 0.93705,-0.622047 1.34284,-1.240496 0.84287,-1.284629 1.00389,-1.215076 -3.12552,-1.34993 -2.02484,-0.06613 -2.59995,0.06119 -3.96445,0.877585 -0.88102,0.527131 -4.06481,1.603596 -7.10673,2.402843 -3.03095,0.79635 -6.10979,1.727211 -6.84195,2.068572 -2.49307,1.16244 -2.49861,1.201306 -0.65925,4.684676 0.91278,1.728663 1.70896,3.421675 1.76924,3.76227 0.12765,0.709154 1.04107,1.441973 1.65934,1.327582 0.23028,-0.0433 1.05798,-0.649571 1.83905,-1.348751 z M 282.38909,175.4447 c -0.73187,-0.23981 -2.70573,-1.28346 -4.38633,-2.31923 -5.11743,-3.15393 -6.30029,-5.99052 -5.40444,-12.9603 1.2004,-9.33933 2.95013,-32.18503 2.76076,-36.04631 -0.0544,-1.10913 0.0958,-2.47458 0.3337,-3.03429 0.23794,-0.55974 0.34234,-1.51934 0.23198,-2.13247 -0.11035,-0.61312 -0.12704,-1.77608 -0.0371,-2.58434 0.09,-0.80826 0.17835,-2.38287 0.19644,-3.49916 0.0889,-5.48425 0.47673,-6.22892 2.3317,-4.47655 0.87918,0.83054 1.20035,1.81182 2.51305,7.67806 0.82776,3.69919 1.59835,6.79067 1.71239,6.86991 0.64829,0.45052 1.92468,-1.21766 2.09764,-2.74153 0.19522,-1.71994 0.62505,-2.52125 1.08042,-2.0141 0.13476,0.15009 0.1244,1.03614 -0.0232,1.96904 -0.1475,0.93288 -0.20507,2.06224 -0.12795,2.50968 0.0777,0.44733 -0.0516,1.95468 -0.28595,3.3494 -0.28523,1.69711 -0.25085,3.79935 0.10393,6.35588 0.29155,2.101 0.67589,7.13333 0.85411,11.18291 0.17824,4.0496 0.62628,10.18388 0.99571,13.63174 0.36942,3.44786 0.59495,6.74642 0.50116,7.33014 -0.0938,0.58371 -0.14773,2.4485 -0.11989,4.14399 0.0514,3.12864 -0.30432,5.12914 -1.02741,5.77841 -1.09087,0.97949 -3.01402,1.43073 -4.30075,1.00912 z m 14.36788,-99.93212 c 0.0962,-0.244055 0.62419,-0.524583 1.17324,-0.623405 0.5638,-0.101474 0.92215,0.01343 0.82329,0.264057 -0.0962,0.244046 -0.62408,0.524559 -1.17314,0.623381 -0.56388,0.101493 -0.92215,-0.01343 -0.82339,-0.264033 z" />
    <path
       style="fill:#ffffff"
       d="m 256.29302,459.25565 c -3.52987,-3.82546 -7.97018,-7.96114 -9.86739,-9.19044 -4.72131,-3.0593 -4.52911,-4.09384 0.76052,-4.09384 5.71937,0 8.69992,-1.32896 9.631,-4.29436 0.40337,-1.28465 1.06574,-5.79045 1.47195,-10.01282 1.0056,-10.45274 2.20668,-38.05361 1.69217,-38.88609 -0.45531,-0.73671 -3.56919,3.57322 -6.16054,8.52682 -0.90361,1.72734 -3.16364,5.08326 -5.02233,7.45759 -4.96384,6.34096 -10.33897,14.9603 -15.16658,24.32048 l -4.26488,8.26928 -3.48957,1.09335 c -4.22244,1.32294 -13.49961,1.29124 -17.40785,-0.0593 -2.41905,-0.83611 -3.3643,-1.91717 -7.82083,-8.94471 l -5.06916,-7.99367 3.85835,-1.1938 c 2.12207,-0.65659 5.01332,-1.99729 6.425,-2.97933 3.882,-2.7006 13.8852,-13.76106 18.79558,-20.7822 2.40048,-3.43226 7.77512,-9.95829 11.94368,-14.5023 9.17024,-9.99622 23.09989,-26.63779 24.45958,-29.22157 0.96858,-1.84055 2.05527,-15.48412 1.2333,-15.48412 -3.29397,0 -17.25802,11.23222 -26.14784,21.03247 -8.95487,9.87187 -12.05395,11.8488 -19.29586,12.30879 -5.81111,0.36913 -10.01458,-0.61213 -12.85278,-3.00036 -1.12846,-0.94953 -2.36502,-1.72643 -2.7479,-1.72643 -1.6334,0 -7.72381,-6.44265 -9.08788,-9.61338 -1.96422,-4.56604 -3.76274,-12.74778 -3.49432,-15.89677 l 0.21949,-2.57522 6.28122,-0.17242 c 4.65768,-0.12786 8.69022,-0.83134 15.60145,-2.72172 5.12618,-1.40211 9.99413,-2.91677 10.81767,-3.36592 0.82361,-0.44915 3.85291,-1.35258 6.7318,-2.00762 5.49852,-1.25109 12.40012,-3.81526 17.09889,-6.35275 1.53541,-0.82919 6.08204,-2.47725 10.10358,-3.66237 5.884,-1.73396 7.4942,-2.49376 8.24515,-3.89059 1.25136,-2.32765 0.7152,-29.00988 -0.66597,-33.14196 -0.83993,-2.51286 -1.20645,-2.8265 -3.67009,-3.14061 -3.09913,-0.39513 -3.95528,-1.63776 -1.88993,-2.74309 3.72228,-1.99211 14.93175,0.63985 21.54295,5.05823 4.15248,2.77517 4.3092,3.80717 2.06628,13.60568 -4.07287,17.79296 -4.04056,18.57022 0.80414,19.34559 5.51301,0.8823 5.5894,0.9253 5.81809,3.27462 l 0.21853,2.24503 3.78676,-4.86444 c 7.07578,-9.08951 10.49247,-12.02645 7.76004,-6.67044 -0.76613,1.50175 -2.19244,4.85446 -3.16959,7.45047 -1.84703,4.90714 -11.72203,23.68712 -15.01405,28.5533 -1.03873,1.53542 -3.19332,5.33534 -4.78799,8.44427 -2.4003,4.67959 -2.99709,6.66186 -3.46692,11.51558 -0.63649,6.57534 0.0945,47.34107 1.26902,70.76897 0.42335,8.44476 0.52104,16.64122 0.21709,18.21417 -0.73402,3.79887 -6.10453,8.65549 -9.57139,8.65549 -2.02284,0 -3.08604,-0.84791 -8.72164,-6.95529 z m 23.94041,-125.65039 c 2.62675,-2.90752 3.13721,-4.19638 1.65151,-4.16996 -1.9053,0.0339 -5.40883,4.06275 -5.40883,6.21983 0,1.41196 1.24185,0.73445 3.75732,-2.04987 z m 166.88261,114.02457 c -0.76771,-0.16388 -2.49504,-0.58227 -3.83852,-0.92976 -1.34349,-0.34759 -8.72391,-1.1406 -16.40096,-1.76232 -19.47761,-1.57743 -25.08183,-2.32456 -29.95827,-3.99397 -4.29554,-1.47051 -11.85629,-6.17033 -13.52763,-8.40886 -0.50215,-0.67265 -2.70058,-2.48382 -4.88539,-4.02482 -2.18472,-1.54099 -5.2285,-3.76984 -6.76391,-4.95299 -3.53283,-2.72232 -12.96823,-8.29389 -14.04562,-8.29389 -0.44795,0 -4.06622,2.55303 -8.04061,5.67342 -17.6348,13.8455 -26.22878,18.41778 -40.9005,21.76037 -3.96168,0.90264 -4.36098,0.89031 -4.35128,-0.13414 0.0162,-1.71031 0.7994,-2.51068 3.47889,-3.55503 15.01376,-5.85203 30.48987,-18.61727 38.32818,-31.6145 1.97862,-3.28088 2.32433,-2.7211 -9.30382,-15.06528 -4.83167,-5.12922 -8.78486,-9.59272 -8.78486,-9.9189 0,-0.32619 -1.72734,-2.52893 -3.83853,-4.89498 -2.11119,-2.36605 -3.83852,-4.61473 -3.83852,-4.99706 0,-0.38232 -2.44461,-3.24777 -5.43245,-6.36765 -2.98784,-3.11988 -6.82906,-7.24281 -8.53602,-9.16208 -3.11481,-3.5022 -10.20092,-9.42184 -11.27843,-9.42184 -0.31676,0 -0.57592,-0.50998 -0.57592,-1.13329 0,-0.94384 0.62726,-1.08128 3.752,-0.82215 5.09456,0.42247 10.15409,3.05775 16.99639,8.85262 3.15877,2.67524 6.3538,5.05784 7.10005,5.29469 0.74624,0.23686 3.46001,2.8511 6.0306,5.80943 10.52522,12.11287 20.81702,21.98388 24.54516,23.5416 2.53052,1.05732 2.69067,1.04162 3.83874,-0.37617 1.63987,-2.02517 7.9672,-21.55308 8.92157,-27.53453 0.42671,-2.67438 0.60763,-5.53276 0.40202,-6.35195 -0.92006,-3.66581 -10.24056,-7.29408 -12.80509,-4.98475 -0.66195,0.59607 -2.90453,1.75269 -4.98353,2.57026 -2.07898,0.81757 -4.69409,2.25566 -5.81133,3.19577 -2.51919,2.11975 -4.86799,2.17464 -7.17619,0.16769 -2.37837,-2.06797 -4.10277,-8.10472 -3.48737,-12.20855 0.42487,-2.83318 1.34077,-4.06009 9.19741,-12.32053 4.79904,-5.0457 9.87835,-10.9628 11.28734,-13.14912 5.36688,-8.32776 6.54442,-10.42065 6.10836,-10.85671 -1.23023,-1.23022 -18.25181,5.86625 -23.16778,9.65891 -2.05028,1.58177 -4.44141,2.84942 -5.31365,2.81701 -0.87223,-0.0324 -2.79208,-0.0955 -4.26633,-0.14014 -2.51992,-0.0764 -2.78076,-0.29664 -4.35515,-3.67798 -2.12169,-4.55681 -2.12901,-8.00494 -0.0259,-12.16941 0.91438,-1.81055 3.41743,-7.61057 5.56235,-12.88894 2.14489,-5.27837 4.93863,-11.24554 6.20829,-13.26037 1.26965,-2.01482 2.87568,-5.54768 3.56895,-7.85079 0.69328,-2.30312 1.89828,-5.53864 2.67781,-7.19005 0.77951,-1.6514 1.26098,-3.15889 1.0699,-3.34995 -0.19105,-0.19106 -2.25849,0.29643 -4.5943,1.08331 -2.33581,0.78686 -4.42194,1.43068 -4.63582,1.43068 -0.8499,0 1.75406,-3.98505 4.19103,-6.41385 5.37882,-5.3608 10.94395,-6.51908 19.98565,-4.15962 5.11114,1.33376 5.94303,1.86604 9.05265,5.79226 2.71446,3.42728 2.30172,5.84406 -1.76017,10.30659 -5.74103,6.30732 -13.39898,17.71594 -18.07493,26.92761 -3.48382,6.86319 -4.44108,9.75025 -3.43835,10.36996 0.89218,0.5514 4.63059,-1.44678 9.26407,-4.95163 6.64134,-5.02363 9.43232,-5.76006 16.04512,-4.23364 2.66695,0.6156 3.81868,1.27054 4.37273,2.48655 0.43198,0.9481 1.57205,1.81479 2.67823,2.03603 1.05936,0.21186 2.44916,0.96324 3.08851,1.66972 1.08899,1.20327 1.05372,1.56588 -0.55732,5.73459 -0.94593,2.44757 -3.20382,6.46589 -5.01763,8.92962 -7.79422,10.58708 -14.32316,22.08036 -13.18798,23.21555 0.20213,0.20213 1.14081,0.0734 2.08596,-0.28585 0.94515,-0.35935 4.32518,-0.65336 7.51117,-0.65336 6.71215,0 7.42157,0.39075 13.10216,7.21664 l 3.53487,4.24755 -0.39189,6.30692 c -0.61241,9.85602 -4.31673,23.75076 -7.57126,28.39895 -0.71344,1.01888 -1.29707,2.04852 -1.29707,2.28807 0,0.23956 -1.12233,2.80059 -2.49404,5.69119 -1.9629,4.13642 -2.32019,5.46509 -1.67776,6.23917 0.96082,1.15771 6.813,4.5175 7.86882,4.5175 0.40121,0 1.22527,0.4322 1.83129,0.96044 1.55231,1.35307 17.78554,8.47442 22.34043,9.80051 2.08487,0.60698 4.80673,1.10361 6.04854,1.10361 1.2419,0 2.36258,0.24646 2.49056,0.5477 0.27067,0.63725 11.24024,5.03232 12.58527,5.04242 1.01408,0.007 6.20357,2.53483 11.13162,5.42098 4.97382,2.91289 11.869,9.52911 11.34739,10.8883 -0.23879,0.62247 -0.1088,1.13174 0.28885,1.13174 1.20106,0 5.0985,6.35271 4.87187,7.9411 -0.21459,1.50399 -1.69162,1.97225 -4.39877,1.39437 z m -30.49441,-103.8928 c -2.0075,-1.36414 -3.40662,-3.48902 -6.5485,-9.94528 -2.19752,-4.51577 -6.64178,-12.1204 -9.87611,-16.89917 -6.6689,-9.85326 -6.70974,-9.55384 1.32841,-9.7227 10.45545,-0.21967 27.58884,9.45482 31.37036,17.71347 2.49842,5.45662 1.31297,11.55047 -3.10544,15.9623 -2.61735,2.61354 -6.81013,4.62616 -9.63741,4.62616 -0.53814,0 -2.12717,-0.78065 -3.53131,-1.73478 z" />
    <path
       style="fill:#ffffff"
       d="m 603.10354,425.86267 c -2.29182,-1.21659 -4.99522,-3.14644 -6.00739,-4.28863 -3.49129,-3.9398 -10.74788,-8.89707 -12.54556,-8.57034 -0.95128,0.17287 -4.20252,2.38859 -7.22509,4.92384 -9.6556,8.09887 -15.1822,10.21709 -21.74744,8.33538 -3.1349,-0.89849 -3.68507,-1.4071 -4.95927,-4.58458 -1.97794,-4.93202 -1.64287,-6.64917 1.89835,-9.72884 3.12183,-2.71496 7.10169,-10.92828 8.30437,-17.13778 0.31058,-1.60366 1.109,-4.31273 1.77433,-6.02016 2.58334,-6.6297 6.69933,-22.11728 6.37305,-23.98012 -0.41802,-2.38658 -2.09205,-2.23699 -8.31325,0.74288 -4.91744,2.35542 -16.52823,5.27067 -17.91725,4.49869 -0.52488,-0.29168 -2.09064,-0.56964 -3.47944,-0.61771 -3.04452,-0.10541 -5.0191,-1.49426 -3.75849,-2.64375 0.47264,-0.43096 1.04701,-0.38765 1.3067,0.0985 0.31356,0.5871 1.09634,0.20975 2.42173,-1.16745 1.07708,-1.11923 3.8541,-3.21913 6.17114,-4.66646 2.31703,-1.44733 4.89919,-3.33375 5.73812,-4.19206 0.83892,-0.85828 2.80478,-1.79307 4.36866,-2.07731 1.56387,-0.28424 2.99467,-0.90599 3.17963,-1.38166 0.18485,-0.47565 1.25981,-1.04598 2.38882,-1.2674 1.129,-0.22147 4.06937,-1.93132 6.53413,-3.79978 3.39139,-2.57089 4.52513,-3.93462 4.66128,-5.60691 0.099,-1.21538 0.75926,-3.45614 1.46733,-4.97947 0.70805,-1.52336 1.08768,-3.74833 0.84358,-4.94438 -0.24383,-1.19608 -0.0311,-2.42833 0.47333,-2.73844 0.50439,-0.31009 0.85258,-2.08524 0.7736,-3.94475 -0.0909,-2.13979 0.45366,-4.25361 1.48347,-5.75825 1.44776,-2.11537 2.43715,-2.58507 8.97785,-4.26209 8.71251,-2.2339 9.55179,-2.0073 15.57013,4.20384 4.37101,4.51114 5.03106,4.77723 15.02919,6.05943 3.89259,0.49921 7.31716,1.18038 7.61004,1.51376 0.29297,0.33334 1.35225,0.45713 2.35408,0.27504 1.00172,-0.18207 2.07546,-0.042 2.38595,0.31144 0.31058,0.35336 1.92588,0.84055 3.58955,1.08263 1.66367,0.24209 4.66376,1.26036 6.66679,2.26283 5.59059,2.79793 6.74828,7.29262 4.13979,16.07209 -2.03603,6.85284 -3.54517,16.60681 -4.6099,29.79446 -0.55661,6.8948 -1.64463,14.02918 -2.52139,16.53312 -0.84825,2.42254 -2.5153,7.83667 -3.70464,12.03135 -2.36516,8.34153 -6.98053,16.14859 -10.8594,18.36909 -1.24591,0.71317 -5.05624,1.78389 -8.4673,2.3793 -5.94951,1.0388 -6.37177,0.99237 -10.36918,-1.1294 z m 7.26346,-25.98971 c 3.28659,-1.68063 3.90981,-2.46293 6.17715,-7.75359 3.08914,-7.20826 4.21918,-10.89068 3.9005,-12.71009 -0.1336,-0.76258 0.58367,-3.53309 1.59388,-6.15674 1.13722,-2.9537 1.76975,-6.36463 1.66105,-8.9571 -0.0966,-2.30275 0.0925,-4.43123 0.42005,-4.72995 0.93208,-0.84992 2.33214,-13.43049 1.82004,-16.35427 -0.5225,-2.98305 -3.93247,-6.31079 -7.67955,-7.49444 -3.56229,-1.12523 -9.52249,0.20907 -11.61322,2.59983 -0.95258,1.08933 -1.64437,2.48097 -1.53726,3.09249 0.10719,0.61153 -0.35953,1.92174 -1.03698,2.91159 -0.67743,0.98983 -1.44444,3.93228 -1.70445,6.5388 -0.25991,2.60648 -1.0043,6.46327 -1.65404,8.57062 -0.64968,2.10735 -1.50139,6.13749 -1.8927,8.95588 -0.39132,2.81835 -1.9303,10.15092 -3.42003,16.29457 -3.17154,13.07925 -3.17588,13.06614 5.07621,15.57552 2.94921,0.89683 5.55833,1.5981 5.7981,1.55834 0.23968,-0.0397 2.08076,-0.91339 4.09125,-1.94146 z m -129.74584,27.6076 c -4.52609,-3.50147 -6.19903,-5.96225 -8.64087,-12.71 -1.61164,-4.45348 -1.72961,-5.36963 -0.93549,-7.2646 1.07431,-2.56338 1.50293,-2.70103 4.73416,-1.52016 4.49463,1.64261 5.13964,0.29698 3.55389,-7.41458 -0.76677,-3.72874 -1.31704,-7.93258 -1.22314,-9.34184 0.1454,-2.17951 -0.0786,-2.59576 -1.49915,-2.78608 -2.24852,-0.30122 -3.9498,1.19839 -8.77937,7.73857 -2.24679,3.04251 -5.10267,6.20093 -6.34641,7.0187 -1.24382,0.81779 -3.42715,3.08686 -4.85176,5.0424 -2.83063,3.88543 -11.68407,11.82933 -16.49955,14.80455 -3.54417,2.18975 -10.63302,3.6882 -12.19615,2.57802 -0.59474,-0.42238 -1.40349,-2.60697 -1.79717,-4.85465 -0.57472,-3.28123 -0.3369,-5.15407 1.20661,-9.50252 2.24434,-6.32302 3.83694,-9.12664 6.26853,-11.03509 0.96637,-0.75848 4.37553,-5.28565 7.57579,-10.06035 5.90295,-8.80684 7.84905,-12.2633 7.17452,-12.74234 -0.20529,-0.14585 -2.59886,1.09231 -5.31892,2.75141 -2.72006,1.65909 -7.55255,3.86112 -10.73881,4.89339 -5.02552,1.62813 -6.15305,1.75789 -8.50765,0.97917 -7.90418,-2.61406 -9.47957,-3.40317 -10.00497,-5.01163 -1.06934,-3.27407 2.42748,-6.25441 3.79541,-3.23478 1.45642,3.21497 6.94432,1.7499 13.41588,-3.5816 2.27543,-1.87455 5.93165,-4.312 8.12489,-5.41653 2.19335,-1.10457 6.59587,-4.34914 9.78344,-7.21018 6.54742,-5.87684 13.64637,-11.22684 15.29596,-11.52761 0.60778,-0.11083 1.83564,-1.20945 2.72845,-2.44138 2.0112,-2.7749 8.85198,-8.24733 13.18682,-10.549 1.78667,-0.94867 5.37834,-3.75455 7.98149,-6.23529 2.60324,-2.48076 6.23879,-5.28308 8.07911,-6.22738 1.84022,-0.94429 4.31467,-2.47306 5.49873,-3.39724 1.184,-0.92419 4.45998,-3.03463 7.2799,-4.6899 4.3057,-2.52736 6.14898,-3.15061 11.50411,-3.88979 5.13496,-0.70878 6.88969,-0.62123 9.0103,0.44956 2.7838,1.40569 6.18618,1.26344 6.78762,-0.28377 0.19745,-0.5081 0.86339,-0.82507 1.47979,-0.7044 0.61648,0.12064 1.97516,-0.82501 3.01932,-2.10147 1.04424,-1.27648 2.37689,-2.40779 2.96152,-2.51406 0.58463,-0.1062 1.49567,-1.37505 2.02453,-2.81956 0.52895,-1.44452 3.48017,-5.30317 6.55841,-8.57482 3.07817,-3.27162 5.52668,-6.34807 5.44113,-6.83652 -0.20834,-1.18948 -4.03084,-3.67895 -5.29589,-3.44902 -0.55413,0.10074 -2.35399,-0.35999 -3.99967,-1.02378 l -2.99228,-1.20687 3.87149,-2.25103 c 2.45691,-1.42855 6.14506,-2.70731 10.09394,-3.49979 5.61086,-1.12601 6.50761,-1.54131 9.12265,-4.22488 1.59512,-1.63686 4.92373,-7.12461 7.39687,-12.19492 2.47313,-5.07033 5.09301,-10.10076 5.822,-11.17875 2.19055,-3.2391 3.20728,-8.92257 2.28221,-12.75667 -0.78272,-3.24396 -0.68787,-3.58295 1.46126,-5.22009 3.47763,-2.64921 17.06112,-5.93245 20.30478,-4.90784 3.22635,1.01912 8.94813,5.54774 9.9888,7.90573 0.99137,2.2466 0.34173,7.58872 -1.02515,8.42896 -0.5482,0.33701 -0.87866,1.28732 -0.73425,2.11176 0.14443,0.82446 -0.19693,1.7815 -0.75862,2.12677 -0.56161,0.34528 -3.35382,4.85058 -6.20467,10.01174 -2.85095,5.16118 -6.23449,10.30345 -7.51907,11.42726 -5.32052,4.65482 -0.1132,8.2615 9.16216,6.34586 4.06686,-0.83994 5.05644,-0.74285 7.79945,0.76529 1.95249,1.07354 4.89928,1.759 7.7857,1.81102 2.55438,0.046 5.3552,0.43786 6.22419,0.8707 1.32173,0.65837 2.12219,0.50333 4.89728,-0.94849 1.85316,-0.96958 4.69997,-1.79372 6.45023,-1.86733 1.72317,-0.0725 4.36022,-0.21988 5.86026,-0.32763 1.49996,-0.10766 4.39986,-0.22138 6.4442,-0.25251 2.46431,-0.0375 4.42773,-0.51991 5.8259,-1.43133 1.75928,-1.14686 2.70984,-1.25811 5.7343,-0.67119 2.76492,0.53653 3.95891,0.43556 5.03027,-0.42547 1.05243,-0.84576 2.77077,-1.04961 6.84823,-0.81245 2.99382,0.17413 6.09415,0.51233 6.88963,0.7516 0.79547,0.23925 2.03431,0.32812 2.75294,0.1975 1.94707,-0.35388 6.28289,2.90372 6.64931,4.99573 0.76851,4.38767 -1.94651,10.1839 -5.29944,11.31365 -6.79327,2.28899 -12.32218,4.33206 -18.3573,6.78343 -8.9909,3.65197 -21.79213,7.56784 -24.55305,7.51076 -1.18211,-0.0245 -4.34413,0.7542 -7.0267,1.73038 -7.35685,2.67708 -12.69221,2.20303 -27.59067,-2.45146 -29.45657,-9.20259 -31.31971,-9.56361 -33.07698,-6.40915 -0.41064,0.73723 -3.08193,3.43608 -5.93606,5.99742 -2.85414,2.56133 -6.44851,6.26785 -7.98745,8.23669 -1.58578,2.02879 -5.01595,4.92399 -7.91718,6.68247 -2.8155,1.7065 -5.49265,3.52844 -5.94927,4.04873 -0.45662,0.5203 -1.78042,1.23744 -2.94178,1.59366 -3.5214,1.08013 -5.7915,2.80763 -6.77573,5.15627 -0.51457,1.22779 -3.31881,5.08799 -6.23165,8.5782 -2.91294,3.49023 -6.70535,8.43582 -8.4278,10.99019 -2.30148,3.41322 -4.63228,5.62901 -8.79309,8.35905 -5.22228,3.42655 -11.91956,6.27522 -12.11603,5.1535 -0.18251,-1.04195 3.2509,-7.33522 5.8838,-10.78459 2.85146,-3.73579 11.7304,-20.51713 11.71108,-22.13407 -0.006,-0.49134 0.0655,-1.90197 0.15879,-3.1346 0.16631,-2.19898 0.10477,-2.22934 -3.2739,-1.61525 -3.83729,0.69744 -12.82489,5.1211 -14.32249,7.04945 -0.53244,0.68554 -3.87579,3.43068 -7.4298,6.10038 -7.86222,5.90598 -9.00105,8.1464 -7.75886,15.26335 0.46356,2.64663 0.95426,7.44016 1.09393,10.65171 0.13969,3.21153 1.55591,15.1918 3.14721,26.62283 3.2,22.98628 3.16229,24.54106 -0.84361,34.86456 -1.54295,3.97651 -2.47723,5.26207 -4.56619,6.28344 -3.85925,1.88696 -4.00825,1.86276 -8.11913,-1.31745 z M 468.48521,313.66775 c -0.073,-0.41677 0.81442,-2.44508 1.97202,-4.50736 2.40324,-4.28118 2.56569,-6.68017 0.3309,-4.8841 -0.7595,0.61037 -3.29574,1.84084 -5.63599,2.73436 -2.34028,0.89355 -4.59972,2.03707 -5.02096,2.54116 -1.07913,1.29132 -6.02482,1.0946 -7.80702,-0.31053 -1.24863,-0.98445 -1.4466,-1.71841 -1.21091,-4.48866 0.43199,-5.07607 3.45209,-9.03741 9.32784,-12.23497 7.76748,-4.22701 11.28422,-7.44328 14.16615,-12.95576 3.53417,-6.76008 9.32163,-21.87257 9.02495,-23.56643 -0.39473,-2.25368 -3.00785,-2.60902 -7.20587,-0.9799 -4.2477,1.64842 -6.36075,3.1754 -12.6503,9.14183 -12.25805,11.62829 -16.68229,14.80225 -24.85691,17.83226 -5.37276,1.99151 -10.24487,1.92983 -13.19744,-0.16706 l -1.82372,-1.29517 11.70402,-8.97761 c 6.43717,-4.9377 12.99425,-10.08031 14.57127,-11.42802 1.57712,-1.34771 3.61674,-2.58655 4.53249,-2.75299 0.91585,-0.16642 2.53406,-1.3648 3.59595,-2.66294 1.06197,-1.29816 2.44466,-2.4537 3.07255,-2.56781 0.62798,-0.11407 2.48011,-1.55407 4.1159,-3.19987 4.86491,-4.89471 8.55619,-7.1039 13.36093,-7.99638 5.44083,-1.01062 8.49503,-0.34346 13.92052,3.0408 3.61693,2.25616 4.2798,3.0373 4.7226,5.56541 0.5534,3.15954 -0.33114,5.69587 -4.92496,14.12182 -1.51843,2.7851 -2.71049,5.35121 -2.64896,5.70247 0.0615,0.35124 -1.93101,4.04491 -4.42783,8.20811 -2.7372,4.56405 -4.21454,7.80468 -3.72086,8.16191 0.49954,0.3615 2.48497,-0.0392 5.09358,-1.02825 6.66513,-2.52686 11.0825,-1.0441 11.96907,4.01761 0.60612,3.46044 -0.58814,5.2431 -4.87963,7.28419 -1.72316,0.81954 -3.23521,2.03222 -3.36022,2.69485 -0.12503,0.66263 -0.66772,1.28485 -1.20595,1.38268 -0.53832,0.0978 -4.70016,2.97927 -9.24858,6.4032 -9.13691,6.87808 -11.45602,8.30504 -11.65463,7.17115 z m 59.35967,-34.01694 c -3.70324,0.43075 -4.74345,0.22092 -6.41592,-1.29409 -1.74425,-1.58001 -2.06408,-2.50582 -2.53438,-7.33656 -1.19323,-12.25495 -1.04252,-13.0614 3.80299,-20.33669 5.37621,-8.07228 4.40518,-6.6925 10.86619,-15.44037 5.63716,-7.63248 8.96852,-13.73807 10.74741,-19.69774 1.03237,-3.45865 1.2067,-3.61664 4.68898,-4.24892 1.98921,-0.36119 6.27492,-0.5779 9.52366,-0.48158 3.24875,0.0964 7.09307,-0.25371 8.54291,-0.77794 2.18575,-0.79033 3.1609,-0.64946 5.70891,0.82452 1.69016,0.97769 4.05677,3.00168 5.25937,4.4977 l 2.18639,2.72004 -2.06249,6.9968 c -1.13441,3.84824 -2.48749,7.61137 -3.00686,8.36251 -4.81199,6.95936 -17.52482,22.61347 -19.47931,23.98612 -2.32647,1.63395 -5.88962,5.06791 -8.08295,7.78998 -4.95079,6.14423 -13.96623,14.53004 -15.08351,14.03013 -0.13281,-0.0595 -2.23041,0.12301 -4.66139,0.40605 z" />
    <path
       style="fill:#ffffff"
       d="m 791.61472,420.68291 c -1.17814,-0.41176 -6.19636,-1.18363 -11.15149,-1.71523 -6.4799,-0.69513 -11.16051,-1.79435 -16.67212,-3.91548 -4.21459,-1.6219 -8.11495,-2.92231 -8.66742,-2.88975 -0.55247,0.0326 -3.04925,-1.26986 -5.54841,-2.89435 -2.49903,-1.62449 -8.22243,-4.49749 -12.71845,-6.38447 -4.49601,-1.88699 -9.23686,-4.08167 -10.53523,-4.87723 -1.29828,-0.79546 -4.3916,-2.01986 -6.87398,-2.72083 -2.48227,-0.70104 -7.79876,-2.55611 -11.81436,-4.12249 -8.25623,-3.22049 -15.67865,-5.05806 -19.51717,-4.83181 -1.43028,0.0843 -3.27529,-0.16805 -4.09985,-0.56079 -0.82465,-0.39272 -3.79413,-1.42753 -6.59891,-2.29958 -3.42987,-1.06637 -5.55156,-2.28224 -6.47982,-3.71344 -1.30815,-2.01675 -1.24467,-2.35074 1.21505,-6.3931 2.73692,-4.49798 6.44948,-7.58783 8.38909,-6.98198 0.6368,0.19893 1.72798,-0.33796 2.42492,-1.19304 0.76372,-0.93703 2.03494,-1.45635 3.19977,-1.30718 1.11754,0.14314 2.36306,-0.32926 2.95287,-1.11997 0.56103,-0.75212 1.75142,-1.4106 2.64527,-1.46328 1.2853,-0.0758 4.18632,-1.34357 5.34848,-2.33739 0.68525,-0.58604 -3.74617,-20.77796 -5.4035,-24.62103 -1.13052,-2.62137 -2.52221,-6.22216 -3.09267,-8.00172 -0.57044,-1.77961 -1.55053,-3.76928 -2.17793,-4.42148 -0.6274,-0.65223 -2.38957,-4.08575 -3.9158,-7.63004 -1.52634,-3.54428 -4.98004,-9.26543 -7.67492,-12.71367 -4.69828,-6.01169 -5.41071,-7.61622 -7.64053,-17.20866 -0.66795,-2.87373 0.30102,-3.52309 2.22631,-1.49192 0.65564,0.69167 3.5534,2.61964 6.43949,4.28435 2.88609,1.66476 6.43672,3.98361 7.89036,5.1531 1.45362,1.1695 3.97602,2.31826 5.60524,2.55283 5.04234,0.72594 10.84313,3.68664 14.09538,7.19425 6.55958,7.07459 9.73525,14.50833 13.44011,31.46091 1.94641,8.90649 2.38517,12.80885 2.4446,21.74187 0.0888,13.34134 0.62033,15.54473 3.97599,16.48111 1.37837,0.38462 2.52652,1.04554 2.55147,1.46872 0.0249,0.42316 1.69823,1.07773 3.71834,1.45456 2.0201,0.37682 4.62399,1.30811 5.78654,2.06951 1.16253,0.76143 3.84853,1.98656 5.96895,2.72255 2.12033,0.73599 4.53116,1.83203 5.3573,2.43561 0.82607,0.60359 2.07978,0.83907 2.7859,0.52327 1.45128,-0.64895 9.44425,2.68655 11.56559,4.82628 0.92875,0.93679 3.50121,1.56418 7.71538,1.88162 3.47706,0.26187 6.69978,0.79855 7.16142,1.1925 1.18989,1.01528 11.71254,0.25053 17.5899,-1.27838 2.72746,-0.70948 8.03138,-1.48526 11.78653,-1.72399 3.75513,-0.23877 7.09345,-0.72884 7.4187,-1.08923 0.32514,-0.36041 1.82333,-0.72792 3.32938,-0.81669 1.50609,-0.0888 2.93246,-0.51591 3.16993,-0.94914 0.23725,-0.43332 2.95348,-1.17969 6.03584,-1.65868 3.08248,-0.47902 7.457,-1.47591 9.72126,-2.21552 2.26417,-0.73951 7.86513,-1.82011 12.44636,-2.40134 6.28217,-0.79707 9.80088,-1.7351 14.31466,-3.81605 3.29179,-1.51758 6.50777,-2.79004 7.14671,-2.8277 1.64734,-0.0971 2.94156,-3.28629 2.23473,-5.5067 -0.42751,-1.34312 -1.73296,-2.18504 -4.59133,-2.96129 -2.1967,-0.59655 -4.44416,-1.05808 -4.99438,-1.02565 -0.55021,0.0324 -2.53779,-1.19309 -4.41675,-2.72339 -1.87916,-1.53027 -4.97843,-3.65389 -6.88743,-4.71912 -1.90912,-1.06522 -4.28507,-2.55849 -5.27996,-3.31842 -0.99499,-0.75992 -4.53788,-2.12111 -7.87305,-3.02488 -6.1841,-1.67579 -10.91763,-1.29767 -13.02567,1.04046 -0.4669,0.51787 -1.84257,1.00016 -3.05693,1.07174 -1.21444,0.0716 -4.49773,1.43077 -7.29641,3.02045 -4.49263,2.55196 -5.64412,2.86564 -9.83659,2.67973 -5.49577,-0.2437 -10.45774,-1.46169 -9.92404,-2.43597 0.20271,-0.37012 2.14024,-1.04248 4.3056,-1.49414 2.16536,-0.45166 5.03583,-1.48489 6.3788,-2.29602 1.34287,-0.81113 2.74274,-1.41138 3.11072,-1.33388 0.84513,0.17804 4.34412,-4.18395 4.87454,-6.07685 0.63204,-2.25547 -5.90934,-10.2553 -8.69715,-10.63615 -1.27798,-0.17461 -2.53037,-0.98818 -2.8051,-1.82229 -0.27725,-0.84206 -2.62751,-2.3527 -5.32713,-3.42407 -2.65697,-1.05449 -5.04214,-2.21387 -5.30031,-2.57644 -0.25828,-0.36256 -1.00968,-0.41767 -1.66988,-0.12246 -0.74835,0.33467 -1.22963,0.0381 -1.27832,-0.78804 -0.043,-0.72861 -0.62934,-1.29226 -1.30314,-1.25254 -1.64756,0.0971 -3.05318,3.28157 -2.18499,4.95007 0.3842,0.73802 1.29767,6.5182 2.03006,12.84482 1.44818,12.50954 1.92982,15.27517 2.89688,16.6329 0.34885,0.48981 0.49475,2.74968 0.32486,5.02194 -0.32728,4.36063 -1.58073,5.69438 -4.22289,4.49349 -0.98855,-0.44928 -2.62522,-0.334 -4.57528,0.32207 -4.57278,1.53885 -8.24923,-0.39712 -15.36205,-8.08931 -5.77415,-6.24453 -6.10163,-6.82027 -8.68442,-15.26389 -1.78958,-5.85036 -2.82099,-11.09859 -3.09507,-15.74844 -0.22609,-3.83568 -1.22981,-11.38168 -2.23063,-16.7689 -3.41078,-18.36165 -7.46664,-55.70218 -6.42547,-59.15819 0.27908,-0.92643 1.04338,-3.81245 1.6986,-6.41343 0.65522,-2.60096 3.21623,-7.96355 5.6911,-11.91686 2.47496,-3.95333 6.90745,-11.23851 9.85007,-16.18928 2.94251,-4.95079 5.75468,-9.39755 6.24918,-9.88167 0.49459,-0.48416 3.11364,-3.33741 5.82013,-6.34059 2.70649,-3.00317 5.3434,-5.48523 5.85977,-5.51567 0.51648,-0.0304 0.89928,-0.72753 0.85086,-1.54906 -0.0484,-0.82157 0.99245,-2.3831 2.31307,-3.4701 1.32062,-1.08699 2.35736,-2.71884 2.30388,-3.62629 -0.0535,-0.90747 0.43255,-1.88688 1.08018,-2.17648 0.64751,-0.28958 1.80022,-1.55569 2.56153,-2.81358 1.20897,-1.99754 1.27342,-4.1654 0.50949,-17.1259 l -0.87465,-14.83884 5.09142,-12.07943 c 4.51697,-10.71659 4.9696,-12.30659 4.01264,-14.09287 -1.3721,-2.56115 -3.08802,-2.46328 -4.67953,0.26682 -0.728,1.249 -2.04399,2.18858 -3.15707,2.25419 -2.66756,0.15723 -10.98975,8.02578 -18.41904,17.41498 -4.31559,5.45408 -6.83932,7.95178 -8.15945,8.07541 -1.08413,0.10157 -3.20413,1.68708 -4.89903,3.66407 -2.94498,3.43513 -3.074,3.49019 -8.99821,3.83939 -3.50486,0.20658 -7.25686,0.9557 -9.00035,1.79701 -2.96006,1.42829 -3.03648,1.41504 -7.63475,-1.32603 -7.28979,-4.34561 -10.63994,-9.29527 -11.92652,-17.62093 -0.77513,-5.01583 -0.72666,-5.3927 0.54952,-4.27484 0.76976,0.67427 2.68406,1.64874 4.25388,2.1655 1.56982,0.51676 3.79147,1.56088 4.93697,2.32027 1.14549,0.75941 3.21139,1.3142 4.59087,1.23289 3.28739,-0.19377 8.94036,-2.17043 10.57178,-3.69657 0.71131,-0.66535 2.67665,-1.51547 4.36754,-1.88912 1.69077,-0.37368 3.22923,-1.15936 3.41867,-1.74598 0.18942,-0.58664 1.3376,-1.37121 2.55156,-1.74354 1.21396,-0.37233 3.83804,-1.83945 5.83134,-3.2603 1.99329,-1.42085 5.27471,-3.41223 7.29193,-4.42527 2.01732,-1.01307 5.75971,-3.82979 8.31634,-6.25939 5.33448,-5.06924 7.73076,-6.24208 7.8716,-3.85265 0.051,0.86436 0.46897,1.54938 0.9289,1.52227 0.46003,-0.0271 0.76326,-1.28979 0.6739,-2.80594 -0.12803,-2.17199 0.64173,-3.68729 3.62936,-7.14463 3.98781,-4.61471 9.65474,-9.071534 11.68686,-9.191314 0.66166,-0.039 1.94035,-1.417268 2.84184,-3.062864 0.90139,-1.64558 2.08219,-3.018098 2.62397,-3.050032 0.54178,-0.03193 1.39856,-0.804557 1.90392,-1.716934 0.50536,-0.912397 3.89906,-4.142657 7.54144,-7.178368 3.64229,-3.035707 6.89757,-6.049765 7.23391,-6.697891 0.33635,-0.648136 0.97572,-0.984945 1.42096,-0.74848 0.44513,0.236494 1.19661,-0.556402 1.66983,-1.761968 1.58071,-4.026588 8.35071,-8.49276 19.45087,-12.831813 l 10.45882,-4.088357 0.14087,2.389915 c 0.0775,1.314452 0.55793,2.365333 1.06782,2.335278 0.56327,-0.0332 0.6812,-0.826472 0.30079,-2.02179 -0.5402,-1.696886 -0.23468,-2.120565 2.22389,-3.08382 3.46589,-1.35785 6.73458,-1.594161 13.4107,-0.969572 6.7198,0.628693 11.93726,2.953481 13.88514,6.18688 2.56112,4.251286 4.14004,9.843165 3.29581,11.672377 -1.47895,3.204524 -7.33849,9.280852 -13.24096,13.730754 -6.77363,5.106597 -11.07815,8.912345 -20.44789,18.078699 -3.55035,3.47331 -7.56323,6.96473 -8.91742,7.75876 -1.3543,0.79403 -3.24603,2.70535 -4.20377,4.24737 -0.95784,1.54202 -4.56169,6.03666 -8.00864,9.98809 -5.79187,6.63958 -6.18781,7.33263 -5.22019,9.13851 0.57572,1.07474 3.41657,3.34588 6.31304,5.04693 2.89648,1.70108 5.96634,4.02232 6.8219,5.15838 1.85602,2.46433 2.14796,8.22074 0.58819,11.6071 -1.61338,3.50371 -8.29695,10.3728 -11.66907,11.99293 -3.1905,1.53288 -10.20081,9.92201 -10.07499,12.05662 0.11463,1.94467 4.48476,6.1211 6.29343,6.01449 0.87349,-0.0515 5.04712,-1.41429 9.27465,-3.02842 4.22754,-1.61415 9.25903,-3.02749 11.18102,-3.14078 1.92209,-0.11329 4.81288,-0.84208 6.42404,-1.61951 1.61117,-0.77746 4.36428,-1.49813 6.11804,-1.6015 1.75368,-0.10337 4.16586,-0.62139 5.36032,-1.15115 2.1305,-0.94495 13.2914,-2.82185 16.5982,-2.7913 9.84835,0.091 15.08197,1.57312 21.53987,6.09978 4.30329,3.01631 6.03902,7.04451 7.50926,17.42694 0.49895,3.52335 1.30327,7.27663 1.78737,8.34065 0.6324,1.38985 0.49482,3.2904 -0.48846,6.74998 -0.75281,2.64846 -1.11641,5.46499 -0.80816,6.25892 0.30816,0.79396 -0.16985,5.43695 -1.06255,10.31778 -0.89261,4.88081 -1.51684,10.67524 -1.38709,12.87647 0.12975,2.20122 -0.089,5.01921 -0.48605,6.26216 -0.39714,1.24295 -0.7434,5.66166 -0.76959,9.81935 -0.0261,4.15767 -0.71016,11.6503 -1.5202,16.65028 -0.80984,4.99994 -1.39508,10.40581 -1.30035,12.01297 0.0947,1.60714 -0.14209,4.08382 -0.52631,5.50373 -0.38425,1.41991 -2.52243,9.4503 -4.75159,17.84527 -2.22904,8.395 -5.31049,18.06926 -6.8477,21.49837 -1.53709,3.42911 -3.93577,8.79781 -5.3302,11.93044 -1.86696,4.19429 -4.50007,7.80359 -9.9886,13.69214 -6.04304,6.48344 -7.25504,8.2055 -6.40597,9.10133 1.55033,1.63555 5.67592,1.08918 12.26762,-1.62463 6.3709,-2.62293 10.87609,-3.31785 10.9719,-1.69242 0.033,0.56039 0.83643,-0.22506 1.78533,-1.74544 1.24221,-1.99035 2.38426,-2.80713 4.07912,-2.91732 1.29476,-0.0833 3.00888,-0.54948 3.80927,-1.034 0.80042,-0.48453 2.73702,-1.09709 4.30343,-1.36128 1.56651,-0.26418 3.73915,-1.12787 4.82823,-1.91931 2.02605,-1.47237 17.14651,-6.45484 21.96453,-7.23773 1.47255,-0.23928 4.76081,-1.21819 7.30745,-2.17535 3.38397,-1.27196 5.02205,-1.5297 6.08671,-0.95775 1.10188,0.59188 1.89952,0.38435 3.27387,-0.85184 2.75048,-2.47397 7.48857,-3.41521 8.87256,-1.76253 0.74728,0.89237 1.20926,1.00383 1.3922,0.33578 0.20663,-0.75468 0.72018,-0.76008 2.09404,-0.0221 1.54847,0.8318 2.01761,0.75918 3.14019,-0.486 2.48109,-2.7519 5.3926,-2.04435 10.30076,2.50335 4.88364,4.52507 5.78221,6.92222 6.39828,17.07101 0.24714,4.01604 -1.38086,8.40157 -2.82781,7.63289 -0.37037,-0.1968 -3.83949,2.97644 -7.70907,7.05162 -5.32353,5.60642 -7.98623,7.75859 -10.94295,8.84458 -2.14904,0.78947 -4.70728,2.06009 -5.68489,2.82387 -0.97751,0.76366 -2.54078,1.42777 -3.4737,1.47581 -1.34868,0.0683 -1.45811,-0.0816 -0.53383,-0.73657 0.94774,-0.67164 0.95483,-1.21152 0.0381,-2.9225 -1.00669,-1.87907 -1.4495,-2.02561 -4.23079,-1.40007 -1.70852,0.38431 -4.80011,1.70149 -6.87021,2.92707 -2.07001,1.22564 -4.83369,2.39016 -6.14142,2.58794 -1.30771,0.1977 -4.38977,1.46115 -6.84897,2.80759 -5.94715,3.25625 -12.37776,5.23368 -23.9035,7.35057 -5.25099,0.96445 -10.64152,2.41144 -11.97883,3.21551 -3.05555,1.83725 -8.41594,2.19572 -12.38473,0.82827 -2.91631,-1.00487 -3.15341,-0.95383 -5.42464,1.16768 -4.40838,4.11778 -16.67488,7.89218 -29.7866,9.16527 -8.43941,0.81949 -37.79502,4.28488 -42.71177,5.04208 -2.17265,0.33461 -5.72746,0.89134 -7.89948,1.23717 -2.172,0.34585 -4.91313,0.2896 -6.09124,-0.11985 z m 73.00576,-100.195 c 2.10671,-1.27526 3.48085,-7.67576 3.91836,-18.25192 0.20197,-4.87955 0.69355,-12.98603 1.09239,-18.01436 2.01396,-25.39012 -1.51079,-69.97542 -6.15176,-77.81202 l -2.13016,-3.59704 -6.37559,-0.36086 c -7.03226,-0.39805 -9.02918,0.021 -12.91285,2.70935 -2.50101,1.73121 -2.6075,2.04953 -2.33663,6.97963 0.15605,2.84115 -0.0428,6.86015 -0.44233,8.93112 -0.39951,2.07096 -0.68979,5.99682 -0.64523,8.72411 0.0447,2.72727 -0.1266,5.9988 -0.38072,7.27007 -0.38142,1.90894 0.34238,3.37886 4.15605,8.44111 5.27971,7.00803 7.01765,10.27014 8.17745,15.34895 0.451,1.97448 1.39726,4.75595 2.10293,6.18099 0.89833,1.81416 1.29909,4.91598 1.33653,10.34603 0.08,11.55139 -0.0136,12.18019 -2.88967,19.40643 -1.46022,3.669 -2.60582,7.50487 -2.54574,8.52415 0.0601,1.01929 -0.56512,3.62904 -1.38934,5.79947 -2.04655,5.3891 -1.45367,7.87452 2.28219,9.56871 3.34277,1.51601 12.50319,1.39863 15.13412,-0.19392 z m -50.28786,-8.98884 c 1.48681,-6.39351 -0.0505,-14.07604 -3.4045,-17.0139 l -2.58853,-2.26733 -5.48847,5.92829 c -6.62235,7.15307 -7.89085,10.5195 -5.12374,13.59681 2.45484,2.73 5.35208,3.94518 9.73892,4.08488 5.67201,0.1806 5.84272,0.073 6.86632,-4.32874 z m -28.71683,-4.89509 c 4.72303,-2.76917 20.48277,-24.60631 20.27704,-28.09649 -0.0865,-1.46716 -5.49855,-3.8673 -8.1864,-3.63049 -1.37754,0.12137 -4.04363,-0.2618 -5.92461,-0.85151 -1.88099,-0.58972 -5.76596,-0.95028 -8.63305,-0.80127 -5.00062,0.26009 -5.23125,0.36474 -5.66027,2.57225 -0.76239,3.92323 1.47658,29.58123 2.73547,31.34887 0.87743,1.23193 2.67514,1.05144 5.39182,-0.54135 z m -19.30783,-39.53764 c 1.21466,-0.39913 1.60376,-1.04129 1.26119,-2.08131 -0.90886,-2.75948 3.24126,-11.45506 11.1613,-23.38561 7.04391,-10.61085 9.87591,-15.2273 11.28762,-18.39957 0.89446,-2.0099 5.2607,-7.64645 9.70292,-12.52572 8.57407,-9.41761 11.30749,-14.60525 9.94737,-18.87802 -1.30872,-4.11133 -5.0759,-3.473 -11.18713,1.8956 -2.22348,1.95332 -4.32799,3.56832 -4.67677,3.58888 -0.3487,0.0206 -3.07395,1.12436 -6.05611,2.45293 -5.45918,2.43218 -12.05492,7.78719 -11.94241,9.69602 0.0708,1.20109 -2.8943,4.33653 -4.87695,5.15718 -0.75402,0.31212 -2.82852,2.81649 -4.60991,5.56526 -1.7814,2.7488 -3.66449,5.39514 -4.18468,5.88078 -0.52019,0.48566 -1.86735,3.17087 -2.99361,5.96716 -1.78984,4.44381 -2.02014,6.31677 -1.82808,14.87032 0.22881,10.19442 1.01717,13.52659 4.32454,18.27913 1.92383,2.76446 1.99839,2.79509 4.67071,1.91697 z m 22.66696,-8.28191 c 1.45271,-0.9939 3.29919,-1.84725 4.10359,-1.89635 0.80428,-0.0494 2.86509,-1.59905 4.57955,-3.44428 1.71443,-1.84524 5.32208,-4.68454 8.01693,-6.30956 3.25083,-1.96035 4.98761,-3.5705 5.16107,-4.78499 0.71865,-5.02935 0.63758,-8.26224 -0.27348,-10.905 -0.85517,-2.48052 -1.26845,-2.81556 -2.80311,-2.27187 -3.59519,1.27382 -10.43879,6.43587 -12.43676,9.38093 -1.12533,1.65879 -2.86431,3.74265 -3.86462,4.63086 -1.00018,0.88821 -1.79406,2.03143 -1.76406,2.54046 0.03,0.50906 -0.88785,2.01693 -2.03966,3.35085 -1.60577,1.85961 -2.121,3.49246 -2.20892,7.00025 -0.063,2.51619 0.11103,4.56159 0.3869,4.54533 0.27577,-0.0163 1.68996,-0.84272 3.14257,-1.83663 z m -71.92684,-11.52704 c -3.79677,-0.5006 -8.36707,-2.2405 -9.29028,-3.53683 -0.31328,-0.43976 -1.6208,-0.73759 -2.90569,-0.66185 -2.64958,0.15617 -6.20978,-3.45569 -16.13389,-16.36821 -7.42336,-9.65882 -12.1395,-14.08991 -16.73469,-15.72353 -5.04564,-1.79377 -4.66726,-3.63173 1.12397,-5.45953 3.86995,-1.22142 4.70519,-1.25835 6.42794,-0.28422 2.33225,1.3187 5.12094,1.59385 18.08224,1.78421 8.70438,0.12785 10.43383,0.43292 17.49636,3.08638 4.31041,1.61949 8.2579,2.91973 8.77202,2.88942 0.51423,-0.0303 0.96975,0.53464 1.01223,1.25541 0.0425,0.72077 0.89234,1.88604 1.88854,2.58943 1.79775,1.26932 1.80653,1.36589 1.16703,12.88612 -0.85143,15.33501 -0.97557,16.00525 -3.10298,16.74373 -3.37603,1.17189 -4.27777,1.26429 -7.8028,0.79947 z" />
</g>
</svg>
